%FSLAX34Y34*%
%MOMM*%
%LNCOPPER_BOTTOM*%
G71*
G01*
%ADD10C, 2.00*%
%ADD11C, 1.00*%
%ADD12C, 0.30*%
%LPD*%
X-300000Y-20000D02*
G54D10*
D03*
X-300000Y-380000D02*
G54D10*
D03*
G36*
X-40000Y-75000D02*
X-60000Y-75000D01*
X-60000Y-95000D01*
X-40000Y-95000D01*
X-40000Y-75000D01*
G37*
G36*
X-65400Y-75000D02*
X-85400Y-75000D01*
X-85400Y-95000D01*
X-65400Y-95000D01*
X-65400Y-75000D01*
G37*
G36*
X-90800Y-75000D02*
X-110800Y-75000D01*
X-110800Y-95000D01*
X-90800Y-95000D01*
X-90800Y-75000D01*
G37*
G36*
X-116200Y-75000D02*
X-136200Y-75000D01*
X-136200Y-95000D01*
X-116200Y-95000D01*
X-116200Y-75000D01*
G37*
G36*
X-141600Y-75000D02*
X-161600Y-75000D01*
X-161600Y-95000D01*
X-141600Y-95000D01*
X-141600Y-75000D01*
G37*
G36*
X-167000Y-75000D02*
X-187000Y-75000D01*
X-187000Y-95000D01*
X-167000Y-95000D01*
X-167000Y-75000D01*
G37*
G36*
X-192400Y-75000D02*
X-212400Y-75000D01*
X-212400Y-95000D01*
X-192400Y-95000D01*
X-192400Y-75000D01*
G37*
G36*
X-217800Y-75000D02*
X-237800Y-75000D01*
X-237800Y-95000D01*
X-217800Y-95000D01*
X-217800Y-75000D01*
G37*
G36*
X-243200Y-75000D02*
X-263200Y-75000D01*
X-263200Y-95000D01*
X-243200Y-95000D01*
X-243200Y-75000D01*
G37*
G36*
X-268600Y-75000D02*
X-288600Y-75000D01*
X-288600Y-95000D01*
X-268600Y-95000D01*
X-268600Y-75000D01*
G37*
G36*
X-294000Y-75000D02*
X-314000Y-75000D01*
X-314000Y-95000D01*
X-294000Y-95000D01*
X-294000Y-75000D01*
G37*
G36*
X-319400Y-75000D02*
X-339400Y-75000D01*
X-339400Y-95000D01*
X-319400Y-95000D01*
X-319400Y-75000D01*
G37*
G36*
X-344800Y-75000D02*
X-364800Y-75000D01*
X-364800Y-95000D01*
X-344800Y-95000D01*
X-344800Y-75000D01*
G37*
G36*
X-370200Y-75000D02*
X-390200Y-75000D01*
X-390200Y-95000D01*
X-370200Y-95000D01*
X-370200Y-75000D01*
G37*
G36*
X-395600Y-75000D02*
X-415600Y-75000D01*
X-415600Y-95000D01*
X-395600Y-95000D01*
X-395600Y-75000D01*
G37*
G36*
X-40000Y-225000D02*
X-60000Y-225000D01*
X-60000Y-245000D01*
X-40000Y-245000D01*
X-40000Y-225000D01*
G37*
G36*
X-65400Y-225000D02*
X-85400Y-225000D01*
X-85400Y-245000D01*
X-65400Y-245000D01*
X-65400Y-225000D01*
G37*
G36*
X-90800Y-225000D02*
X-110800Y-225000D01*
X-110800Y-245000D01*
X-90800Y-245000D01*
X-90800Y-225000D01*
G37*
G36*
X-116200Y-225000D02*
X-136200Y-225000D01*
X-136200Y-245000D01*
X-116200Y-245000D01*
X-116200Y-225000D01*
G37*
G36*
X-141600Y-225000D02*
X-161600Y-225000D01*
X-161600Y-245000D01*
X-141600Y-245000D01*
X-141600Y-225000D01*
G37*
G36*
X-167000Y-225000D02*
X-187000Y-225000D01*
X-187000Y-245000D01*
X-167000Y-245000D01*
X-167000Y-225000D01*
G37*
G36*
X-192400Y-225000D02*
X-212400Y-225000D01*
X-212400Y-245000D01*
X-192400Y-245000D01*
X-192400Y-225000D01*
G37*
G36*
X-217800Y-225000D02*
X-237800Y-225000D01*
X-237800Y-245000D01*
X-217800Y-245000D01*
X-217800Y-225000D01*
G37*
G36*
X-243200Y-225000D02*
X-263200Y-225000D01*
X-263200Y-245000D01*
X-243200Y-245000D01*
X-243200Y-225000D01*
G37*
G36*
X-268600Y-225000D02*
X-288600Y-225000D01*
X-288600Y-245000D01*
X-268600Y-245000D01*
X-268600Y-225000D01*
G37*
G36*
X-294000Y-225000D02*
X-314000Y-225000D01*
X-314000Y-245000D01*
X-294000Y-245000D01*
X-294000Y-225000D01*
G37*
G36*
X-319400Y-225000D02*
X-339400Y-225000D01*
X-339400Y-245000D01*
X-319400Y-245000D01*
X-319400Y-225000D01*
G37*
G36*
X-344800Y-225000D02*
X-364800Y-225000D01*
X-364800Y-245000D01*
X-344800Y-245000D01*
X-344800Y-225000D01*
G37*
G36*
X-370200Y-225000D02*
X-390200Y-225000D01*
X-390200Y-245000D01*
X-370200Y-245000D01*
X-370200Y-225000D01*
G37*
G36*
X-395600Y-225000D02*
X-415600Y-225000D01*
X-415600Y-245000D01*
X-395600Y-245000D01*
X-395600Y-225000D01*
G37*
G36*
X-370068Y-6072D02*
X-390068Y-6072D01*
X-390068Y-26072D01*
X-370068Y-26072D01*
X-370068Y-6072D01*
G37*
G36*
X-395468Y-6072D02*
X-415468Y-6072D01*
X-415468Y-26072D01*
X-395468Y-26072D01*
X-395468Y-6072D01*
G37*
G36*
X-420868Y-6072D02*
X-440868Y-6072D01*
X-440868Y-26072D01*
X-420868Y-26072D01*
X-420868Y-6072D01*
G37*
G36*
X-446268Y-6072D02*
X-466268Y-6072D01*
X-466268Y-26072D01*
X-446268Y-26072D01*
X-446268Y-6072D01*
G37*
G36*
X-370068Y-31472D02*
X-390068Y-31472D01*
X-390068Y-51472D01*
X-370068Y-51472D01*
X-370068Y-31472D01*
G37*
G36*
X-395468Y-31472D02*
X-415468Y-31472D01*
X-415468Y-51472D01*
X-395468Y-51472D01*
X-395468Y-31472D01*
G37*
G36*
X-420868Y-31472D02*
X-440868Y-31472D01*
X-440868Y-51472D01*
X-420868Y-51472D01*
X-420868Y-31472D01*
G37*
G36*
X-446268Y-31472D02*
X-466268Y-31472D01*
X-466268Y-51472D01*
X-446268Y-51472D01*
X-446268Y-31472D01*
G37*
X-251168Y-327298D02*
G54D10*
D03*
X-200368Y-327298D02*
G54D10*
D03*
X-225768Y-327298D02*
G54D10*
D03*
X-251216Y-272413D02*
G54D10*
D03*
X-200416Y-272413D02*
G54D10*
D03*
X-225816Y-272413D02*
G54D10*
D03*
G54D11*
X-177000Y-235000D02*
X-177000Y-247000D01*
X-185000Y-255000D01*
X-220000Y-255000D01*
X-225000Y-260000D01*
X-225000Y-271598D01*
X-225816Y-272413D01*
G54D11*
X-251168Y-327298D02*
X-251168Y-272461D01*
X-251216Y-272413D01*
X-155000Y-275000D02*
G54D10*
D03*
X-155000Y-351200D02*
G54D10*
D03*
G54D11*
X-200416Y-272413D02*
X-157587Y-272413D01*
X-155000Y-275000D01*
G54D11*
X-151600Y-235000D02*
X-151600Y-248400D01*
X-135000Y-265000D01*
X-135000Y-295000D01*
X-210000Y-295000D01*
X-225000Y-310000D01*
X-225000Y-326530D01*
X-225768Y-327298D01*
X-263042Y-373241D02*
G54D10*
D03*
X-186842Y-373241D02*
G54D10*
D03*
G54D11*
X-200368Y-327298D02*
X-200368Y-359715D01*
X-186842Y-373241D01*
G36*
X-90000Y-265000D02*
X-110000Y-265000D01*
X-110000Y-285000D01*
X-90000Y-285000D01*
X-90000Y-265000D01*
G37*
G36*
X-90000Y-340000D02*
X-110000Y-340000D01*
X-110000Y-360000D01*
X-90000Y-360000D01*
X-90000Y-340000D01*
G37*
G54D11*
X-100000Y-275000D02*
X-125000Y-250000D01*
X-125000Y-236200D01*
X-126200Y-235000D01*
G54D11*
X-100000Y-350000D02*
X-153800Y-350000D01*
X-155000Y-351200D01*
X-445679Y-296448D02*
G54D10*
D03*
X-445679Y-347249D02*
G54D10*
D03*
G36*
X-370000Y-295000D02*
X-390000Y-295000D01*
X-390000Y-315000D01*
X-370000Y-315000D01*
X-370000Y-295000D01*
G37*
G36*
X-370000Y-330000D02*
X-390000Y-330000D01*
X-390000Y-350000D01*
X-370000Y-350000D01*
X-370000Y-330000D01*
G37*
G36*
X-330000Y-295000D02*
X-350000Y-295000D01*
X-350000Y-315000D01*
X-330000Y-315000D01*
X-330000Y-295000D01*
G37*
G36*
X-290000Y-295000D02*
X-310000Y-295000D01*
X-310000Y-315000D01*
X-290000Y-315000D01*
X-290000Y-295000D01*
G37*
G54D11*
X-251168Y-327298D02*
X-251168Y-318832D01*
X-265000Y-305000D01*
X-300000Y-305000D01*
X-340000Y-305000D01*
X-340000Y-275000D01*
X-355000Y-260000D01*
X-380000Y-260000D01*
X-380200Y-235000D01*
G54D11*
X-263042Y-373241D02*
X-263042Y-356958D01*
X-275000Y-340000D01*
X-380000Y-340000D01*
X-380000Y-305000D01*
X-380000Y-295000D01*
X-405000Y-270000D01*
X-405000Y-235600D01*
X-405600Y-235000D01*
G54D11*
X-445679Y-347249D02*
X-427249Y-347249D01*
X-420000Y-340000D01*
X-380000Y-340000D01*
G54D11*
X-380068Y-16072D02*
X-430868Y-16072D01*
G54D11*
X-100000Y-275000D02*
X-59882Y-275000D01*
X-59800Y-275082D01*
G54D11*
X-59800Y-351282D02*
X-59800Y-364800D01*
X-85000Y-390000D01*
X-210000Y-390000D01*
X-220000Y-380000D01*
X-220000Y-370000D01*
X-240000Y-350000D01*
X-250000Y-350000D01*
X-250000Y-328466D01*
X-251168Y-327298D01*
G54D11*
X-456268Y-16072D02*
X-476072Y-16072D01*
X-485000Y-25000D01*
X-485000Y-70000D01*
X-470000Y-85000D01*
X-405600Y-85000D01*
G54D11*
X-380068Y-16072D02*
X-353928Y-16072D01*
X-325000Y-45000D01*
X-45000Y-45000D01*
X-20000Y-70000D01*
X-20000Y-120000D01*
X-50000Y-150000D01*
X-50000Y-170000D01*
X-75000Y-195000D01*
X-75000Y-234600D01*
X-75400Y-235000D01*
G54D11*
X-380200Y-235000D02*
X-380200Y-204800D01*
X-390000Y-195000D01*
X-420000Y-195000D01*
X-430000Y-205000D01*
X-430000Y-280770D01*
X-445679Y-296448D01*
G54D11*
X-329400Y-85000D02*
X-329400Y-75600D01*
X-340000Y-65000D01*
X-450000Y-65000D01*
X-455000Y-60000D01*
X-455000Y-42740D01*
X-456268Y-41472D01*
X-58662Y-343667D02*
G54D10*
D03*
X-58662Y-292867D02*
G54D10*
D03*
X-58662Y-318267D02*
G54D10*
D03*
G54D11*
X-59800Y-275082D02*
X-59800Y-317129D01*
X-58662Y-318267D01*
%LNAUGENFREISTANZEN*%
%LPC*%
X-300000Y-20000D02*
G54D12*
D03*
X-300000Y-380000D02*
G54D12*
D03*
X-50000Y-85000D02*
G54D12*
D03*
X-75400Y-85000D02*
G54D12*
D03*
X-100800Y-85000D02*
G54D12*
D03*
X-126200Y-85000D02*
G54D12*
D03*
X-151600Y-85000D02*
G54D12*
D03*
X-177000Y-85000D02*
G54D12*
D03*
X-202400Y-85000D02*
G54D12*
D03*
X-227800Y-85000D02*
G54D12*
D03*
X-253200Y-85000D02*
G54D12*
D03*
X-278600Y-85000D02*
G54D12*
D03*
X-304000Y-85000D02*
G54D12*
D03*
X-329400Y-85000D02*
G54D12*
D03*
X-354800Y-85000D02*
G54D12*
D03*
X-380200Y-85000D02*
G54D12*
D03*
X-405600Y-85000D02*
G54D12*
D03*
X-50000Y-235000D02*
G54D12*
D03*
X-75400Y-235000D02*
G54D12*
D03*
X-100800Y-235000D02*
G54D12*
D03*
X-126200Y-235000D02*
G54D12*
D03*
X-151600Y-235000D02*
G54D12*
D03*
X-177000Y-235000D02*
G54D12*
D03*
X-202400Y-235000D02*
G54D12*
D03*
X-227800Y-235000D02*
G54D12*
D03*
X-253200Y-235000D02*
G54D12*
D03*
X-278600Y-235000D02*
G54D12*
D03*
X-304000Y-235000D02*
G54D12*
D03*
X-329400Y-235000D02*
G54D12*
D03*
X-354800Y-235000D02*
G54D12*
D03*
X-380200Y-235000D02*
G54D12*
D03*
X-405600Y-235000D02*
G54D12*
D03*
X-380068Y-16072D02*
G54D12*
D03*
X-405468Y-16072D02*
G54D12*
D03*
X-430868Y-16072D02*
G54D12*
D03*
X-456268Y-16072D02*
G54D12*
D03*
X-380068Y-41472D02*
G54D12*
D03*
X-405468Y-41472D02*
G54D12*
D03*
X-430868Y-41472D02*
G54D12*
D03*
X-456268Y-41472D02*
G54D12*
D03*
X-251168Y-327298D02*
G54D12*
D03*
X-200368Y-327298D02*
G54D12*
D03*
X-225768Y-327298D02*
G54D12*
D03*
X-251216Y-272413D02*
G54D12*
D03*
X-200416Y-272413D02*
G54D12*
D03*
X-225816Y-272413D02*
G54D12*
D03*
X-155000Y-275000D02*
G54D12*
D03*
X-155000Y-351200D02*
G54D12*
D03*
X-263042Y-373241D02*
G54D12*
D03*
X-186842Y-373241D02*
G54D12*
D03*
X-100000Y-275000D02*
G54D12*
D03*
X-100000Y-350000D02*
G54D12*
D03*
X-445679Y-296448D02*
G54D12*
D03*
X-445679Y-347249D02*
G54D12*
D03*
X-380000Y-305000D02*
G54D12*
D03*
X-380000Y-340000D02*
G54D12*
D03*
X-340000Y-305000D02*
G54D12*
D03*
X-300000Y-305000D02*
G54D12*
D03*
X-58662Y-343667D02*
G54D12*
D03*
X-58662Y-292867D02*
G54D12*
D03*
X-58662Y-318267D02*
G54D12*
D03*
M02*
